<svg width="16" height="16" viewBox="0 0 16 16" fill="none" xmlns="http://www.w3.org/2000/svg">
<g id="CC-logo-16-16--final">
<g clip-path="url(#clip0_1429_4094)">
<rect width="16" height="16" rx="8" fill="#112240"/>
<g id="C-1" filter="url(#filter0_d_1429_4094)">
<mask id="path-2-inside-1_1429_4094" fill="white">
<path d="M5.45703 9.87891V5.92969C5.45703 5.58594 5.56641 5.23047 5.78516 4.86328C6.23047 4.11328 6.89453 3.73828 7.77734 3.73828V5.03906C7.49609 5.04688 7.25391 5.14062 7.05078 5.32031C6.85547 5.51562 6.75781 5.71875 6.75781 5.92969V9.87891C6.75781 9.94922 6.78125 10.0391 6.82812 10.1484C7 10.5547 7.31641 10.7578 7.77734 10.7578V12.0586C7.01953 12.0508 6.41406 11.7656 5.96094 11.2031C5.625 10.7734 5.45703 10.332 5.45703 9.87891ZM8.375 12.0586V10.7578L8.53906 10.7227C8.65625 10.6992 8.78516 10.6367 8.92578 10.5352C9.06641 10.4336 9.16797 10.3047 9.23047 10.1484C9.26953 10.0312 9.28906 9.89062 9.28906 9.72656C9.29688 9.70312 9.30078 9.64844 9.30078 9.5625L10.5664 9.86719C10.5664 10.4141 10.3711 10.9023 9.98047 11.332C9.52734 11.8164 8.99219 12.0586 8.375 12.0586ZM8.375 5.03906V3.73828C8.89062 3.73828 9.37109 3.94141 9.81641 4.34766C10.3164 4.81641 10.5664 5.35156 10.5664 5.95312L9.28906 6.28125V6.10547C9.28906 5.95703 9.26953 5.82422 9.23047 5.70703C9.12891 5.45703 8.94531 5.26562 8.67969 5.13281C8.47656 5.07031 8.375 5.03906 8.375 5.03906Z"/>
</mask>
<path d="M5.45703 9.87891V5.92969C5.45703 5.58594 5.56641 5.23047 5.78516 4.86328C6.23047 4.11328 6.89453 3.73828 7.77734 3.73828V5.03906C7.49609 5.04688 7.25391 5.14062 7.05078 5.32031C6.85547 5.51562 6.75781 5.71875 6.75781 5.92969V9.87891C6.75781 9.94922 6.78125 10.0391 6.82812 10.1484C7 10.5547 7.31641 10.7578 7.77734 10.7578V12.0586C7.01953 12.0508 6.41406 11.7656 5.96094 11.2031C5.625 10.7734 5.45703 10.332 5.45703 9.87891ZM8.375 12.0586V10.7578L8.53906 10.7227C8.65625 10.6992 8.78516 10.6367 8.92578 10.5352C9.06641 10.4336 9.16797 10.3047 9.23047 10.1484C9.26953 10.0312 9.28906 9.89062 9.28906 9.72656C9.29688 9.70312 9.30078 9.64844 9.30078 9.5625L10.5664 9.86719C10.5664 10.4141 10.3711 10.9023 9.98047 11.332C9.52734 11.8164 8.99219 12.0586 8.375 12.0586ZM8.375 5.03906V3.73828C8.89062 3.73828 9.37109 3.94141 9.81641 4.34766C10.3164 4.81641 10.5664 5.35156 10.5664 5.95312L9.28906 6.28125V6.10547C9.28906 5.95703 9.26953 5.82422 9.23047 5.70703C9.12891 5.45703 8.94531 5.26562 8.67969 5.13281C8.47656 5.07031 8.375 5.03906 8.375 5.03906Z" fill="#64FFDA"/>
<path d="M5.78516 4.86328L7.50336 5.88689L7.50487 5.88436L5.78516 4.86328ZM7.77734 3.73828H9.77734V1.73828H7.77734V3.73828ZM7.77734 5.03906L7.83288 7.03829L9.77734 6.98428V5.03906H7.77734ZM7.05078 5.32031L5.72563 3.82232L5.67982 3.86285L5.63657 3.9061L7.05078 5.32031ZM6.82812 10.1484L8.67008 9.36915L8.66642 9.3606L6.82812 10.1484ZM7.77734 10.7578H9.77734V8.75781H7.77734V10.7578ZM7.77734 12.0586L7.75673 14.0585L9.77734 14.0793V12.0586H7.77734ZM5.96094 11.2031L4.38532 12.435L4.39429 12.4464L4.40343 12.4578L5.96094 11.2031ZM8.375 12.0586H6.375V14.0586H8.375V12.0586ZM8.375 10.7578L7.95594 8.80221L6.375 9.14098V10.7578H8.375ZM8.53906 10.7227L8.14683 8.76149L8.1334 8.76418L8.12 8.76705L8.53906 10.7227ZM9.23047 10.1484L11.0874 10.8912L11.1092 10.8366L11.1278 10.7809L9.23047 10.1484ZM9.28906 9.72656L7.3917 9.09411L7.28906 9.40201V9.72656H9.28906ZM9.30078 9.5625L9.76889 7.61805L7.30078 7.02388V9.5625H9.30078ZM10.5664 9.86719H12.5664V8.29153L11.0345 7.92274L10.5664 9.86719ZM9.98047 11.332L11.441 12.6983L11.4508 12.6879L11.4603 12.6774L9.98047 11.332ZM8.375 5.03906H6.375V6.51621L7.78683 6.95062L8.375 5.03906ZM8.375 3.73828V1.73828H6.375V3.73828H8.375ZM9.81641 4.34766L11.1843 2.88858L11.1744 2.87929L11.1643 2.87012L9.81641 4.34766ZM10.5664 5.95312L11.064 7.89023L12.5664 7.5043V5.95312H10.5664ZM9.28906 6.28125H7.28906V8.85995L9.78667 8.21836L9.28906 6.28125ZM9.23047 5.70703L11.1278 5.07458L11.1075 5.01371L11.0834 4.95428L9.23047 5.70703ZM8.67969 5.13281L9.57411 3.34396L9.42606 3.26993L9.26786 3.22125L8.67969 5.13281ZM7.45703 9.87891V5.92969H3.45703V9.87891H7.45703ZM7.45703 5.92969C7.45703 5.97283 7.44978 5.99618 7.45062 5.99345C7.45209 5.98868 7.46371 5.95345 7.50336 5.88689L4.06695 3.83967C3.70832 4.44166 3.45703 5.14749 3.45703 5.92969H7.45703ZM7.50487 5.88436C7.542 5.82182 7.57034 5.78946 7.58422 5.77538C7.59131 5.7682 7.59589 5.76449 7.59784 5.76298C7.59975 5.76152 7.60054 5.76109 7.60063 5.76104C7.60072 5.76098 7.60198 5.76025 7.60526 5.75897C7.60861 5.75766 7.61565 5.75515 7.62745 5.75229C7.6508 5.74663 7.69833 5.73828 7.77734 5.73828V1.73828C6.19927 1.73828 4.87646 2.47629 4.06545 3.8422L7.50487 5.88436ZM5.77734 3.73828V5.03906H9.77734V3.73828H5.77734ZM7.72181 3.03983C6.99078 3.06014 6.29415 3.3194 5.72563 3.82232L8.37593 6.81831C8.30777 6.8786 8.2166 6.93785 8.10675 6.98037C7.9979 7.02251 7.90138 7.03639 7.83288 7.03829L7.72181 3.03983ZM5.63657 3.9061C5.18686 4.35581 4.75781 5.03907 4.75781 5.92969H8.75781C8.75781 6.14453 8.70564 6.3358 8.63356 6.48573C8.56554 6.62721 8.49203 6.70749 8.46499 6.73453L5.63657 3.9061ZM4.75781 5.92969V9.87891H8.75781V5.92969H4.75781ZM4.75781 9.87891C4.75781 10.3451 4.90005 10.7268 4.98983 10.9363L8.66642 9.3606C8.67196 9.37354 8.69128 9.42001 8.71063 9.49418C8.72905 9.56482 8.75781 9.69936 8.75781 9.87891H4.75781ZM4.98619 10.9277C5.20126 11.4361 5.56104 11.9336 6.11387 12.2885C6.66051 12.6394 7.2507 12.7578 7.77734 12.7578V8.75781C7.84305 8.75781 8.04457 8.77463 8.2748 8.92244C8.51123 9.07422 8.62687 9.26706 8.67006 9.36916L4.98619 10.9277ZM5.77734 10.7578V12.0586H9.77734V10.7578H5.77734ZM7.79796 10.0587C7.66858 10.0574 7.6171 10.0342 7.60704 10.0295C7.59971 10.026 7.57029 10.0128 7.51845 9.94847L4.40343 12.4578C5.25241 13.5117 6.43481 14.0449 7.75673 14.0585L7.79796 10.0587ZM7.53655 9.97128C7.47329 9.89037 7.45494 9.84558 7.45225 9.8385C7.45089 9.83495 7.45244 9.83825 7.45417 9.84746C7.45593 9.85682 7.45703 9.86782 7.45703 9.87891H3.45703C3.45703 10.8641 3.83224 11.7275 4.38532 12.435L7.53655 9.97128ZM10.375 12.0586V10.7578H6.375V12.0586H10.375ZM8.79406 12.7134L8.95812 12.6783L8.12 8.76705L7.95594 8.80221L8.79406 12.7134ZM8.93129 12.6838C9.4266 12.5848 9.82053 12.356 10.0968 12.1565L7.7548 8.9138C7.75969 8.91027 7.79199 8.88723 7.85109 8.85857C7.91006 8.82998 8.01006 8.78885 8.14683 8.76149L8.93129 12.6838ZM10.0968 12.1565C10.5347 11.8402 10.8796 11.4107 11.0874 10.8912L7.37352 9.40566C7.45629 9.19871 7.5981 9.02697 7.7548 8.9138L10.0968 12.1565ZM11.1278 10.7809C11.253 10.4053 11.2891 10.0395 11.2891 9.72656H7.28906C7.28906 9.73037 7.28877 9.71352 7.29343 9.67994C7.29809 9.64641 7.30864 9.58938 7.3331 9.51598L11.1278 10.7809ZM11.1864 10.359C11.276 10.0903 11.2897 9.85273 11.2928 9.81046C11.2994 9.71703 11.3008 9.62965 11.3008 9.5625H7.30078C7.30078 9.58128 7.30017 9.56422 7.30293 9.52547C7.30435 9.5057 7.30781 9.46313 7.31632 9.40644C7.32312 9.3611 7.34223 9.24249 7.3917 9.09411L11.1864 10.359ZM8.83267 11.5069L10.0983 11.8116L11.0345 7.92274L9.76889 7.61805L8.83267 11.5069ZM8.56641 9.86719C8.56641 9.88424 8.56494 9.89298 8.56446 9.89554C8.56401 9.89793 8.56365 9.89908 8.56297 9.90077C8.56279 9.90121 8.55195 9.93019 8.50059 9.98669L11.4603 12.6774C12.163 11.9045 12.5664 10.9443 12.5664 9.86719H8.56641ZM8.51993 9.96572C8.48409 10.004 8.45713 10.0263 8.44058 10.0385C8.42446 10.0504 8.41594 10.0543 8.41466 10.0549C8.41361 10.0553 8.41328 10.0555 8.41116 10.0559C8.40874 10.0565 8.39772 10.0586 8.375 10.0586V14.0586C9.59033 14.0586 10.6413 13.5532 11.441 12.6983L8.51993 9.96572ZM10.375 5.03906V3.73828H6.375V5.03906H10.375ZM8.375 5.73828C8.37163 5.73828 8.3644 5.73785 8.35551 5.73604C8.34667 5.73424 8.34213 5.73228 8.34328 5.73277C8.34478 5.7334 8.38786 5.75164 8.46848 5.82519L11.1643 2.87012C10.4168 2.18821 9.47234 1.73828 8.375 1.73828V5.73828ZM8.44852 5.80673C8.54222 5.89457 8.56542 5.94396 8.56688 5.94708C8.56803 5.94954 8.56705 5.9478 8.56621 5.944C8.5654 5.94032 8.56641 5.94233 8.56641 5.95312H12.5664C12.5664 4.71946 12.0259 3.67755 11.1843 2.88858L8.44852 5.80673ZM10.0688 4.01602L8.79146 4.34414L9.78667 8.21836L11.064 7.89023L10.0688 4.01602ZM11.2891 6.28125V6.10547H7.28906V6.28125H11.2891ZM11.2891 6.10547C11.2891 5.78406 11.247 5.43204 11.1278 5.07458L7.3331 6.33949C7.29207 6.21639 7.28906 6.13 7.28906 6.10547H11.2891ZM11.0834 4.95428C10.78 4.20738 10.2274 3.67061 9.57411 3.34396L7.78526 6.92167C7.73761 6.89784 7.65771 6.84849 7.57324 6.76043C7.48666 6.67016 7.42036 6.5652 7.37754 6.45979L11.0834 4.95428ZM9.26786 3.22125C9.26746 3.22113 9.26707 3.22101 9.26667 3.22089C9.26627 3.22077 9.26588 3.22065 9.26548 3.22052C9.26509 3.2204 9.26469 3.22028 9.2643 3.22016C9.2639 3.22004 9.26351 3.21992 9.26312 3.2198C9.26272 3.21967 9.26233 3.21955 9.26194 3.21943C9.26154 3.21931 9.26115 3.21919 9.26076 3.21907C9.26037 3.21895 9.25998 3.21883 9.25958 3.21871C9.25919 3.21859 9.2588 3.21847 9.25841 3.21835C9.25802 3.21823 9.25763 3.21811 9.25724 3.21799C9.25685 3.21787 9.25646 3.21775 9.25607 3.21763C9.25568 3.21751 9.2553 3.21739 9.25491 3.21727C9.25452 3.21715 9.25413 3.21703 9.25374 3.21691C9.25336 3.21679 9.25297 3.21667 9.25258 3.21655C9.2522 3.21644 9.25181 3.21632 9.25142 3.2162C9.25104 3.21608 9.25065 3.21596 9.25027 3.21584C9.24988 3.21572 9.2495 3.2156 9.24911 3.21549C9.24873 3.21537 9.24835 3.21525 9.24796 3.21513C9.24758 3.21501 9.2472 3.2149 9.24681 3.21478C9.24643 3.21466 9.24605 3.21454 9.24567 3.21443C9.24528 3.21431 9.2449 3.21419 9.24452 3.21407C9.24414 3.21396 9.24376 3.21384 9.24338 3.21372C9.243 3.2136 9.24262 3.21349 9.24224 3.21337C9.24186 3.21325 9.24148 3.21314 9.2411 3.21302C9.24072 3.2129 9.24034 3.21279 9.23996 3.21267C9.23959 3.21256 9.23921 3.21244 9.23883 3.21232C9.23845 3.21221 9.23808 3.21209 9.2377 3.21197C9.23732 3.21186 9.23695 3.21174 9.23657 3.21163C9.2362 3.21151 9.23582 3.2114 9.23545 3.21128C9.23507 3.21117 9.2347 3.21105 9.23432 3.21094C9.23395 3.21082 9.23357 3.2107 9.2332 3.21059C9.23283 3.21048 9.23245 3.21036 9.23208 3.21025C9.23171 3.21013 9.23134 3.21002 9.23096 3.2099C9.23059 3.20979 9.23022 3.20967 9.22985 3.20956C9.22948 3.20944 9.22911 3.20933 9.22874 3.20922C9.22837 3.2091 9.228 3.20899 9.22763 3.20888C9.22726 3.20876 9.22689 3.20865 9.22652 3.20853C9.22615 3.20842 9.22578 3.20831 9.22541 3.20819C9.22505 3.20808 9.22468 3.20797 9.22431 3.20785C9.22394 3.20774 9.22358 3.20763 9.22321 3.20752C9.22284 3.2074 9.22248 3.20729 9.22211 3.20718C9.22175 3.20707 9.22138 3.20695 9.22102 3.20684C9.22065 3.20673 9.22029 3.20662 9.21992 3.2065C9.21956 3.20639 9.21919 3.20628 9.21883 3.20617C9.21847 3.20606 9.2181 3.20595 9.21774 3.20583C9.21738 3.20572 9.21702 3.20561 9.21665 3.2055C9.21629 3.20539 9.21593 3.20528 9.21557 3.20517C9.21521 3.20505 9.21485 3.20494 9.21449 3.20483C9.21413 3.20472 9.21377 3.20461 9.21341 3.2045C9.21305 3.20439 9.21269 3.20428 9.21233 3.20417C9.21197 3.20406 9.21161 3.20395 9.21126 3.20384C9.2109 3.20373 9.21054 3.20362 9.21018 3.20351C9.20983 3.2034 9.20947 3.20329 9.20911 3.20318C9.20876 3.20307 9.2084 3.20296 9.20804 3.20285C9.20769 3.20274 9.20733 3.20263 9.20698 3.20252C9.20662 3.20241 9.20627 3.2023 9.20591 3.20219C9.20556 3.20209 9.20521 3.20198 9.20485 3.20187C9.2045 3.20176 9.20415 3.20165 9.20379 3.20154C9.20344 3.20143 9.20309 3.20133 9.20274 3.20122C9.20239 3.20111 9.20204 3.201 9.20168 3.20089C9.20133 3.20078 9.20098 3.20068 9.20063 3.20057C9.20028 3.20046 9.19993 3.20035 9.19958 3.20025C9.19923 3.20014 9.19888 3.20003 9.19854 3.19992C9.19819 3.19982 9.19784 3.19971 9.19749 3.1996C9.19714 3.1995 9.1968 3.19939 9.19645 3.19928C9.1961 3.19918 9.19575 3.19907 9.19541 3.19896C9.19506 3.19886 9.19472 3.19875 9.19437 3.19864C9.19402 3.19854 9.19368 3.19843 9.19333 3.19832C9.19299 3.19822 9.19265 3.19811 9.1923 3.19801C9.19196 3.1979 9.19161 3.19779 9.19127 3.19769C9.19093 3.19758 9.19058 3.19748 9.19024 3.19737C9.1899 3.19727 9.18956 3.19716 9.18922 3.19706C9.18887 3.19695 9.18853 3.19685 9.18819 3.19674C9.18785 3.19664 9.18751 3.19653 9.18717 3.19643C9.18683 3.19632 9.18649 3.19622 9.18615 3.19611C9.18581 3.19601 9.18547 3.1959 9.18513 3.1958C9.18479 3.1957 9.18446 3.19559 9.18412 3.19549C9.18378 3.19538 9.18344 3.19528 9.18311 3.19518C9.18277 3.19507 9.18243 3.19497 9.1821 3.19487C9.18176 3.19476 9.18142 3.19466 9.18109 3.19456C9.18075 3.19445 9.18042 3.19435 9.18008 3.19425C9.17975 3.19414 9.17941 3.19404 9.17908 3.19394C9.17875 3.19384 9.17841 3.19373 9.17808 3.19363C9.17775 3.19353 9.17741 3.19342 9.17708 3.19332C9.17675 3.19322 9.17642 3.19312 9.17608 3.19302C9.17575 3.19291 9.17542 3.19281 9.17509 3.19271C9.17476 3.19261 9.17443 3.19251 9.1741 3.19241C9.17377 3.1923 9.17344 3.1922 9.17311 3.1921C9.17278 3.192 9.17245 3.1919 9.17212 3.1918C9.1718 3.1917 9.17147 3.1916 9.17114 3.19149C9.17081 3.19139 9.17048 3.19129 9.17016 3.19119C9.16983 3.19109 9.1695 3.19099 9.16918 3.19089C9.16885 3.19079 9.16853 3.19069 9.1682 3.19059C9.16787 3.19049 9.16755 3.19039 9.16722 3.19029C9.1669 3.19019 9.16658 3.19009 9.16625 3.18999C9.16593 3.18989 9.1656 3.18979 9.16528 3.18969C9.16496 3.18959 9.16464 3.18949 9.16431 3.18939C9.16399 3.18929 9.16367 3.1892 9.16335 3.1891C9.16303 3.189 9.1627 3.1889 9.16238 3.1888C9.16206 3.1887 9.16174 3.1886 9.16142 3.1885C9.1611 3.18841 9.16078 3.18831 9.16046 3.18821C9.16014 3.18811 9.15983 3.18801 9.15951 3.18792C9.15919 3.18782 9.15887 3.18772 9.15855 3.18762C9.15824 3.18752 9.15792 3.18743 9.1576 3.18733C9.15728 3.18723 9.15697 3.18713 9.15665 3.18704C9.15634 3.18694 9.15602 3.18684 9.1557 3.18675C9.15539 3.18665 9.15507 3.18655 9.15476 3.18645C9.15444 3.18636 9.15413 3.18626 9.15382 3.18616C9.1535 3.18607 9.15319 3.18597 9.15288 3.18588C9.15256 3.18578 9.15225 3.18568 9.15194 3.18559C9.15163 3.18549 9.15131 3.18539 9.151 3.1853C9.15069 3.1852 9.15038 3.18511 9.15007 3.18501C9.14976 3.18492 9.14945 3.18482 9.14914 3.18472C9.14883 3.18463 9.14852 3.18453 9.14821 3.18444C9.1479 3.18434 9.14759 3.18425 9.14728 3.18415C9.14697 3.18406 9.14667 3.18396 9.14636 3.18387C9.14605 3.18378 9.14574 3.18368 9.14544 3.18359C9.14513 3.18349 9.14482 3.1834 9.14452 3.1833C9.14421 3.18321 9.14391 3.18312 9.1436 3.18302C9.1433 3.18293 9.14299 3.18283 9.14269 3.18274C9.14238 3.18265 9.14208 3.18255 9.14177 3.18246C9.14147 3.18237 9.14117 3.18227 9.14086 3.18218C9.14056 3.18209 9.14026 3.18199 9.13996 3.1819C9.13965 3.18181 9.13935 3.18171 9.13905 3.18162C9.13875 3.18153 9.13845 3.18144 9.13815 3.18134C9.13785 3.18125 9.13755 3.18116 9.13725 3.18107C9.13695 3.18097 9.13665 3.18088 9.13635 3.18079C9.13605 3.1807 9.13575 3.18061 9.13545 3.18051C9.13515 3.18042 9.13486 3.18033 9.13456 3.18024C9.13426 3.18015 9.13396 3.18006 9.13367 3.17996C9.13337 3.17987 9.13307 3.17978 9.13278 3.17969C9.13248 3.1796 9.13219 3.17951 9.13189 3.17942C9.1316 3.17933 9.1313 3.17924 9.13101 3.17915C9.13071 3.17906 9.13042 3.17896 9.13012 3.17887C9.12983 3.17878 9.12954 3.17869 9.12924 3.1786C9.12895 3.17851 9.12866 3.17842 9.12837 3.17833C9.12807 3.17824 9.12778 3.17815 9.12749 3.17806C9.1272 3.17797 9.12691 3.17789 9.12662 3.1778C9.12633 3.17771 9.12604 3.17762 9.12575 3.17753C9.12546 3.17744 9.12517 3.17735 9.12488 3.17726C9.12459 3.17717 9.1243 3.17708 9.12401 3.17699C9.12373 3.17691 9.12344 3.17682 9.12315 3.17673C9.12286 3.17664 9.12258 3.17655 9.12229 3.17646C9.122 3.17638 9.12172 3.17629 9.12143 3.1762C9.12114 3.17611 9.12086 3.17602 9.12057 3.17594C9.12029 3.17585 9.12 3.17576 9.11972 3.17567C9.11944 3.17559 9.11915 3.1755 9.11887 3.17541C9.11858 3.17532 9.1183 3.17524 9.11802 3.17515C9.11774 3.17506 9.11745 3.17498 9.11717 3.17489C9.11689 3.1748 9.11661 3.17472 9.11633 3.17463C9.11604 3.17454 9.11576 3.17446 9.11548 3.17437C9.1152 3.17428 9.11492 3.1742 9.11464 3.17411C9.11436 3.17402 9.11408 3.17394 9.1138 3.17385C9.11353 3.17377 9.11325 3.17368 9.11297 3.1736C9.11269 3.17351 9.11241 3.17342 9.11214 3.17334C9.11186 3.17325 9.11158 3.17317 9.1113 3.17308C9.11103 3.173 9.11075 3.17291 9.11048 3.17283C9.1102 3.17274 9.10992 3.17266 9.10965 3.17257C9.10937 3.17249 9.1091 3.17241 9.10883 3.17232C9.10855 3.17224 9.10828 3.17215 9.108 3.17207C9.10773 3.17198 9.10746 3.1719 9.10718 3.17182C9.10691 3.17173 9.10664 3.17165 9.10637 3.17156C9.1061 3.17148 9.10582 3.1714 9.10555 3.17131C9.10528 3.17123 9.10501 3.17115 9.10474 3.17106C9.10447 3.17098 9.1042 3.1709 9.10393 3.17081C9.10366 3.17073 9.10339 3.17065 9.10312 3.17057C9.10285 3.17048 9.10258 3.1704 9.10232 3.17032C9.10205 3.17024 9.10178 3.17015 9.10151 3.17007C9.10125 3.16999 9.10098 3.16991 9.10071 3.16982C9.10045 3.16974 9.10018 3.16966 9.09991 3.16958C9.09965 3.1695 9.09938 3.16942 9.09912 3.16933C9.09885 3.16925 9.09859 3.16917 9.09832 3.16909C9.09806 3.16901 9.0978 3.16893 9.09753 3.16885C9.09727 3.16877 9.09701 3.16868 9.09674 3.1686C9.09648 3.16852 9.09622 3.16844 9.09596 3.16836C9.09569 3.16828 9.09543 3.1682 9.09517 3.16812C9.09491 3.16804 9.09465 3.16796 9.09439 3.16788C9.09413 3.1678 9.09387 3.16772 9.09361 3.16764C9.09335 3.16756 9.09309 3.16748 9.09283 3.1674C9.09257 3.16732 9.09231 3.16724 9.09206 3.16716C9.0918 3.16708 9.09154 3.167 9.09128 3.16692C9.09103 3.16684 9.09077 3.16677 9.09051 3.16669C9.09026 3.16661 9.09 3.16653 9.08975 3.16645C9.08949 3.16637 9.08923 3.16629 9.08898 3.16621C9.08872 3.16614 9.08847 3.16606 9.08822 3.16598C9.08796 3.1659 9.08771 3.16582 9.08745 3.16575C9.0872 3.16567 9.08695 3.16559 9.0867 3.16551C9.08644 3.16543 9.08619 3.16536 9.08594 3.16528C9.08569 3.1652 9.08544 3.16512 9.08518 3.16505C9.08493 3.16497 9.08468 3.16489 9.08443 3.16482C9.08418 3.16474 9.08393 3.16466 9.08368 3.16458C9.08343 3.16451 9.08318 3.16443 9.08294 3.16435C9.08269 3.16428 9.08244 3.1642 9.08219 3.16413C9.08194 3.16405 9.08169 3.16397 9.08145 3.1639C9.0812 3.16382 9.08095 3.16375 9.08071 3.16367C9.08046 3.16359 9.08021 3.16352 9.07997 3.16344C9.07972 3.16337 9.07948 3.16329 9.07923 3.16322C9.07899 3.16314 9.07874 3.16307 9.0785 3.16299C9.07826 3.16292 9.07801 3.16284 9.07777 3.16277C9.07753 3.16269 9.07728 3.16262 9.07704 3.16254C9.0768 3.16247 9.07656 3.16239 9.07631 3.16232C9.07607 3.16224 9.07583 3.16217 9.07559 3.16209C9.07535 3.16202 9.07511 3.16195 9.07487 3.16187C9.07463 3.1618 9.07439 3.16172 9.07415 3.16165C9.07391 3.16158 9.07367 3.1615 9.07343 3.16143C9.07319 3.16136 9.07295 3.16128 9.07272 3.16121C9.07248 3.16114 9.07224 3.16106 9.072 3.16099C9.07177 3.16092 9.07153 3.16085 9.07129 3.16077C9.07106 3.1607 9.07082 3.16063 9.07059 3.16056C9.07035 3.16048 9.07012 3.16041 9.06988 3.16034C9.06965 3.16027 9.06941 3.16019 9.06918 3.16012C9.06894 3.16005 9.06871 3.15998 9.06848 3.15991C9.06824 3.15983 9.06801 3.15976 9.06778 3.15969C9.06755 3.15962 9.06731 3.15955 9.06708 3.15948C9.06685 3.15941 9.06662 3.15933 9.06639 3.15926C9.06616 3.15919 9.06593 3.15912 9.0657 3.15905C9.06547 3.15898 9.06524 3.15891 9.06501 3.15884C9.06478 3.15877 9.06455 3.1587 9.06432 3.15863C9.06409 3.15856 9.06386 3.15849 9.06364 3.15842C9.06341 3.15835 9.06318 3.15828 9.06295 3.15821C9.06273 3.15814 9.0625 3.15807 9.06227 3.158C9.06205 3.15793 9.06182 3.15786 9.0616 3.15779C9.06137 3.15772 9.06115 3.15765 9.06092 3.15758C9.0607 3.15751 9.06047 3.15744 9.06025 3.15737C9.06002 3.15731 9.0598 3.15724 9.05958 3.15717C9.05935 3.1571 9.05913 3.15703 9.05891 3.15696C9.05869 3.15689 9.05846 3.15683 9.05824 3.15676C9.05802 3.15669 9.0578 3.15662 9.05758 3.15655C9.05736 3.15648 9.05714 3.15642 9.05692 3.15635C9.0567 3.15628 9.05648 3.15621 9.05626 3.15615C9.05604 3.15608 9.05582 3.15601 9.0556 3.15594C9.05538 3.15588 9.05517 3.15581 9.05495 3.15574C9.05473 3.15568 9.05451 3.15561 9.0543 3.15554C9.05408 3.15548 9.05386 3.15541 9.05365 3.15534C9.05343 3.15528 9.05321 3.15521 9.053 3.15514C9.05278 3.15508 9.05257 3.15501 9.05235 3.15494C9.05214 3.15488 9.05192 3.15481 9.05171 3.15475C9.0515 3.15468 9.05128 3.15462 9.05107 3.15455C9.05086 3.15448 9.05064 3.15442 9.05043 3.15435C9.05022 3.15429 9.05001 3.15422 9.0498 3.15416C9.04958 3.15409 9.04937 3.15403 9.04916 3.15396C9.04895 3.1539 9.04874 3.15383 9.04853 3.15377C9.04832 3.1537 9.04811 3.15364 9.0479 3.15358C9.04769 3.15351 9.04748 3.15345 9.04728 3.15338C9.04707 3.15332 9.04686 3.15325 9.04665 3.15319C9.04644 3.15313 9.04624 3.15306 9.04603 3.153C9.04582 3.15294 9.04562 3.15287 9.04541 3.15281C9.0452 3.15275 9.045 3.15268 9.04479 3.15262C9.04459 3.15256 9.04438 3.15249 9.04418 3.15243C9.04397 3.15237 9.04377 3.1523 9.04357 3.15224C9.04336 3.15218 9.04316 3.15212 9.04296 3.15205C9.04275 3.15199 9.04255 3.15193 9.04235 3.15187C9.04215 3.1518 9.04194 3.15174 9.04174 3.15168C9.04154 3.15162 9.04134 3.15156 9.04114 3.15149C9.04094 3.15143 9.04074 3.15137 9.04054 3.15131C9.04034 3.15125 9.04014 3.15119 9.03994 3.15113C9.03974 3.15106 9.03954 3.151 9.03934 3.15094C9.03915 3.15088 9.03895 3.15082 9.03875 3.15076C9.03855 3.1507 9.03835 3.15064 9.03816 3.15058C9.03796 3.15052 9.03776 3.15046 9.03757 3.1504C9.03737 3.15034 9.03718 3.15028 9.03698 3.15022C9.03679 3.15016 9.03659 3.1501 9.0364 3.15004C9.0362 3.14998 9.03601 3.14992 9.03581 3.14986C9.03562 3.1498 9.03543 3.14974 9.03523 3.14968C9.03504 3.14962 9.03485 3.14956 9.03466 3.1495C9.03447 3.14944 9.03427 3.14938 9.03408 3.14932C9.03389 3.14926 9.0337 3.14921 9.03351 3.14915C9.03332 3.14909 9.03313 3.14903 9.03294 3.14897C9.03275 3.14891 9.03256 3.14885 9.03237 3.1488C9.03218 3.14874 9.03199 3.14868 9.0318 3.14862C9.03162 3.14856 9.03143 3.14851 9.03124 3.14845C9.03105 3.14839 9.03087 3.14833 9.03068 3.14828C9.03049 3.14822 9.03031 3.14816 9.03012 3.1481C9.02993 3.14805 9.02975 3.14799 9.02956 3.14793C9.02938 3.14788 9.02919 3.14782 9.02901 3.14776C9.02882 3.14771 9.02864 3.14765 9.02846 3.14759C9.02827 3.14754 9.02809 3.14748 9.02791 3.14742C9.02772 3.14737 9.02754 3.14731 9.02736 3.14725C9.02718 3.1472 9.027 3.14714 9.02681 3.14709C9.02663 3.14703 9.02645 3.14698 9.02627 3.14692C9.02609 3.14686 9.02591 3.14681 9.02573 3.14675C9.02555 3.1467 9.02537 3.14664 9.02519 3.14659C9.02501 3.14653 9.02484 3.14648 9.02466 3.14642C9.02448 3.14637 9.0243 3.14631 9.02412 3.14626C9.02395 3.1462 9.02377 3.14615 9.02359 3.1461C9.02342 3.14604 9.02324 3.14599 9.02306 3.14593C9.02289 3.14588 9.02271 3.14582 9.02254 3.14577C9.02236 3.14572 9.02219 3.14566 9.02201 3.14561C9.02184 3.14556 9.02166 3.1455 9.02149 3.14545C9.02132 3.1454 9.02114 3.14534 9.02097 3.14529C9.0208 3.14524 9.02063 3.14518 9.02045 3.14513C9.02028 3.14508 9.02011 3.14502 9.01994 3.14497C9.01977 3.14492 9.0196 3.14487 9.01943 3.14481C9.01926 3.14476 9.01909 3.14471 9.01892 3.14466C9.01875 3.1446 9.01858 3.14455 9.01841 3.1445C9.01824 3.14445 9.01807 3.1444 9.0179 3.14434C9.01773 3.14429 9.01757 3.14424 9.0174 3.14419C9.01723 3.14414 9.01707 3.14409 9.0169 3.14404C9.01673 3.14398 9.01657 3.14393 9.0164 3.14388C9.01623 3.14383 9.01607 3.14378 9.0159 3.14373C9.01574 3.14368 9.01557 3.14363 9.01541 3.14358C9.01525 3.14353 9.01508 3.14348 9.01492 3.14343C9.01475 3.14338 9.01459 3.14333 9.01443 3.14328C9.01427 3.14323 9.0141 3.14318 9.01394 3.14313C9.01378 3.14308 9.01362 3.14303 9.01346 3.14298C9.0133 3.14293 9.01314 3.14288 9.01297 3.14283C9.01281 3.14278 9.01265 3.14273 9.01249 3.14268C9.01234 3.14263 9.01218 3.14258 9.01202 3.14253C9.01186 3.14248 9.0117 3.14244 9.01154 3.14239C9.01138 3.14234 9.01123 3.14229 9.01107 3.14224C9.01091 3.14219 9.01075 3.14215 9.0106 3.1421C9.01044 3.14205 9.01029 3.142 9.01013 3.14195C9.00997 3.14191 9.00982 3.14186 9.00966 3.14181C9.00951 3.14176 9.00935 3.14171 9.0092 3.14167C9.00905 3.14162 9.00889 3.14157 9.00874 3.14152C9.00858 3.14148 9.00843 3.14143 9.00828 3.14138C9.00813 3.14134 9.00797 3.14129 9.00782 3.14124C9.00767 3.1412 9.00752 3.14115 9.00737 3.1411C9.00722 3.14106 9.00707 3.14101 9.00692 3.14096C9.00677 3.14092 9.00662 3.14087 9.00647 3.14083C9.00632 3.14078 9.00617 3.14073 9.00602 3.14069C9.00587 3.14064 9.00572 3.1406 9.00557 3.14055C9.00543 3.14051 9.00528 3.14046 9.00513 3.14041C9.00498 3.14037 9.00484 3.14032 9.00469 3.14028C9.00454 3.14023 9.0044 3.14019 9.00425 3.14014C9.00411 3.1401 9.00396 3.14005 9.00382 3.14001C9.00367 3.13997 9.00353 3.13992 9.00338 3.13988C9.00324 3.13983 9.00309 3.13979 9.00295 3.13974C9.00281 3.1397 9.00266 3.13966 9.00252 3.13961C9.00238 3.13957 9.00224 3.13952 9.0021 3.13948C9.00195 3.13944 9.00181 3.13939 9.00167 3.13935C9.00153 3.13931 9.00139 3.13926 9.00125 3.13922C9.00111 3.13918 9.00097 3.13913 9.00083 3.13909C9.00069 3.13905 9.00055 3.13901 9.00041 3.13896C9.00027 3.13892 9.00014 3.13888 9 3.13884C8.99986 3.13879 8.99972 3.13875 8.99959 3.13871C8.99945 3.13867 8.99931 3.13862 8.99917 3.13858C8.99904 3.13854 8.9989 3.1385 8.99877 3.13846C8.99863 3.13842 8.9985 3.13837 8.99836 3.13833C8.99823 3.13829 8.99809 3.13825 8.99796 3.13821C8.99782 3.13817 8.99769 3.13813 8.99756 3.13808C8.99742 3.13804 8.99729 3.138 8.99716 3.13796C8.99703 3.13792 8.99689 3.13788 8.99676 3.13784C8.99663 3.1378 8.9965 3.13776 8.99637 3.13772C8.99624 3.13768 8.99611 3.13764 8.99598 3.1376C8.99585 3.13756 8.99572 3.13752 8.99559 3.13748C8.99546 3.13744 8.99533 3.1374 8.9952 3.13736C8.99507 3.13732 8.99494 3.13728 8.99482 3.13724C8.99469 3.1372 8.99456 3.13716 8.99443 3.13712C8.99431 3.13708 8.99418 3.13705 8.99405 3.13701C8.99393 3.13697 8.9938 3.13693 8.99367 3.13689C8.99355 3.13685 8.99342 3.13681 8.9933 3.13677C8.99317 3.13674 8.99305 3.1367 8.99293 3.13666C8.9928 3.13662 8.99268 3.13658 8.99256 3.13655C8.99243 3.13651 8.99231 3.13647 8.99219 3.13643C8.99206 3.13639 8.99194 3.13636 8.99182 3.13632C8.9917 3.13628 8.99158 3.13624 8.99146 3.13621C8.99134 3.13617 8.99122 3.13613 8.9911 3.1361C8.99098 3.13606 8.99086 3.13602 8.99074 3.13599C8.99062 3.13595 8.9905 3.13591 8.99038 3.13588C8.99026 3.13584 8.99014 3.1358 8.99003 3.13577C8.98991 3.13573 8.98979 3.13569 8.98967 3.13566C8.98956 3.13562 8.98944 3.13559 8.98932 3.13555C8.98921 3.13552 8.98909 3.13548 8.98898 3.13544C8.98886 3.13541 8.98875 3.13537 8.98863 3.13534C8.98852 3.1353 8.9884 3.13527 8.98829 3.13523C8.98817 3.1352 8.98806 3.13516 8.98795 3.13513C8.98783 3.13509 8.98772 3.13506 8.98761 3.13502C8.9875 3.13499 8.98738 3.13495 8.98727 3.13492C8.98716 3.13489 8.98705 3.13485 8.98694 3.13482C8.98683 3.13478 8.98672 3.13475 8.98661 3.13472C8.9865 3.13468 8.98639 3.13465 8.98628 3.13461C8.98617 3.13458 8.98606 3.13455 8.98595 3.13451C8.98584 3.13448 8.98574 3.13445 8.98563 3.13441C8.98552 3.13438 8.98541 3.13435 8.98531 3.13432C8.9852 3.13428 8.98509 3.13425 8.98499 3.13422C8.98488 3.13418 8.98477 3.13415 8.98467 3.13412C8.98456 3.13409 8.98446 3.13405 8.98435 3.13402C8.98425 3.13399 8.98415 3.13396 8.98404 3.13393C8.98394 3.13389 8.98383 3.13386 8.98373 3.13383C8.98363 3.1338 8.98353 3.13377 8.98342 3.13374C8.98332 3.1337 8.98322 3.13367 8.98312 3.13364C8.98302 3.13361 8.98292 3.13358 8.98281 3.13355C8.98271 3.13352 8.98261 3.13349 8.98251 3.13346C8.98241 3.13343 8.98231 3.13339 8.98221 3.13336C8.98212 3.13333 8.98202 3.1333 8.98192 3.13327C8.98182 3.13324 8.98172 3.13321 8.98162 3.13318C8.98153 3.13315 8.98143 3.13312 8.98133 3.13309C8.98124 3.13306 8.98114 3.13303 8.98104 3.133C8.98095 3.13297 8.98085 3.13294 8.98076 3.13292C8.98066 3.13289 8.98057 3.13286 8.98047 3.13283C8.98038 3.1328 8.98028 3.13277 8.98019 3.13274C8.9801 3.13271 8.98 3.13268 8.97991 3.13265C8.97982 3.13263 8.97972 3.1326 8.97963 3.13257C8.97954 3.13254 8.97945 3.13251 8.97936 3.13248C8.97926 3.13246 8.97917 3.13243 8.97908 3.1324C8.97899 3.13237 8.9789 3.13234 8.97881 3.13232C8.97872 3.13229 8.97863 3.13226 8.97854 3.13223C8.97845 3.13221 8.97837 3.13218 8.97828 3.13215C8.97819 3.13213 8.9781 3.1321 8.97801 3.13207C8.97793 3.13204 8.97784 3.13202 8.97775 3.13199C8.97766 3.13196 8.97758 3.13194 8.97749 3.13191C8.97741 3.13188 8.97732 3.13186 8.97724 3.13183C8.97715 3.13181 8.97707 3.13178 8.97698 3.13175C8.9769 3.13173 8.97681 3.1317 8.97673 3.13168C8.97664 3.13165 8.97656 3.13162 8.97648 3.1316C8.9764 3.13157 8.97631 3.13155 8.97623 3.13152C8.97615 3.1315 8.97607 3.13147 8.97599 3.13145C8.9759 3.13142 8.97582 3.1314 8.97574 3.13137C8.97566 3.13135 8.97558 3.13132 8.9755 3.1313C8.97542 3.13127 8.97534 3.13125 8.97526 3.13123C8.97519 3.1312 8.97511 3.13118 8.97503 3.13115C8.97495 3.13113 8.97487 3.1311 8.97479 3.13108C8.97472 3.13106 8.97464 3.13103 8.97456 3.13101C8.97449 3.13099 8.97441 3.13096 8.97433 3.13094C8.97426 3.13092 8.97418 3.13089 8.97411 3.13087C8.97403 3.13085 8.97396 3.13082 8.97388 3.1308C8.97381 3.13078 8.97373 3.13075 8.97366 3.13073C8.97359 3.13071 8.97351 3.13069 8.97344 3.13066C8.97337 3.13064 8.9733 3.13062 8.97322 3.1306C8.97315 3.13058 8.97308 3.13055 8.97301 3.13053C8.97294 3.13051 8.97287 3.13049 8.9728 3.13047C8.97273 3.13044 8.97266 3.13042 8.97259 3.1304C8.97252 3.13038 8.97245 3.13036 8.97238 3.13034C8.97231 3.13032 8.97224 3.13029 8.97217 3.13027C8.9721 3.13025 8.97204 3.13023 8.97197 3.13021C8.9719 3.13019 8.97183 3.13017 8.97177 3.13015C8.9717 3.13013 8.97164 3.13011 8.97157 3.13009C8.9715 3.13007 8.97144 3.13005 8.97137 3.13003C8.97131 3.13001 8.97124 3.12999 8.97118 3.12997C8.97111 3.12995 8.97105 3.12993 8.97099 3.12991C8.97092 3.12989 8.97086 3.12987 8.9708 3.12985C8.97073 3.12983 8.97067 3.12981 8.97061 3.12979C8.97055 3.12977 8.97049 3.12976 8.97043 3.12974C8.97036 3.12972 8.9703 3.1297 8.97024 3.12968C8.97018 3.12966 8.97012 3.12964 8.97006 3.12962C8.97 3.12961 8.96994 3.12959 8.96989 3.12957C8.96983 3.12955 8.96977 3.12953 8.96971 3.12952C8.96965 3.1295 8.96959 3.12948 8.96954 3.12946C8.96948 3.12945 8.96942 3.12943 8.96937 3.12941C8.96931 3.12939 8.96925 3.12938 8.9692 3.12936C8.96914 3.12934 8.96909 3.12932 8.96903 3.12931C8.96898 3.12929 8.96892 3.12927 8.96887 3.12926C8.96881 3.12924 8.96876 3.12922 8.96871 3.12921C8.96865 3.12919 8.9686 3.12917 8.96855 3.12916C8.96849 3.12914 8.96844 3.12913 8.96839 3.12911C8.96834 3.12909 8.96829 3.12908 8.96823 3.12906C8.96818 3.12905 8.96813 3.12903 8.96808 3.12902C8.96803 3.129 8.96798 3.12898 8.96793 3.12897C8.96788 3.12895 8.96783 3.12894 8.96778 3.12892C8.96774 3.12891 8.96769 3.12889 8.96764 3.12888C8.96759 3.12886 8.96754 3.12885 8.9675 3.12884C8.96745 3.12882 8.9674 3.12881 8.96736 3.12879C8.96731 3.12878 8.96726 3.12876 8.96722 3.12875C8.96717 3.12874 8.96713 3.12872 8.96708 3.12871C8.96704 3.12869 8.96699 3.12868 8.96695 3.12867C8.9669 3.12865 8.96686 3.12864 8.96682 3.12863C8.96677 3.12861 8.96673 3.1286 8.96669 3.12859C8.96665 3.12857 8.9666 3.12856 8.96656 3.12855C8.96652 3.12853 8.96648 3.12852 8.96644 3.12851C8.9664 3.1285 8.96635 3.12848 8.96631 3.12847C8.96627 3.12846 8.96623 3.12845 8.96619 3.12843C8.96616 3.12842 8.96612 3.12841 8.96608 3.1284C8.96604 3.12839 8.966 3.12837 8.96596 3.12836C8.96592 3.12835 8.96589 3.12834 8.96585 3.12833C8.96581 3.12832 8.96578 3.12831 8.96574 3.12829C8.9657 3.12828 8.96567 3.12827 8.96563 3.12826C8.9656 3.12825 8.96556 3.12824 8.96553 3.12823C8.96549 3.12822 8.96546 3.12821 8.96542 3.1282C8.96539 3.12819 8.96535 3.12818 8.96532 3.12817C8.96529 3.12816 8.96525 3.12815 8.96522 3.12814C8.96519 3.12813 8.96516 3.12812 8.96513 3.12811C8.96509 3.1281 8.96506 3.12809 8.96503 3.12808C8.965 3.12807 8.96497 3.12806 8.96494 3.12805C8.96491 3.12804 8.96488 3.12803 8.96485 3.12802C8.96482 3.12801 8.96479 3.128 8.96476 3.12799C8.96473 3.12799 8.96471 3.12798 8.96468 3.12797C8.96465 3.12796 8.96462 3.12795 8.9646 3.12794C8.96457 3.12793 8.96454 3.12793 8.96452 3.12792C8.96449 3.12791 8.96446 3.1279 8.96444 3.12789C8.96441 3.12789 8.96439 3.12788 8.96436 3.12787C8.96434 3.12786 8.96431 3.12786 8.96429 3.12785C8.96426 3.12784 8.96424 3.12783 8.96422 3.12783C8.96419 3.12782 8.96417 3.12781 8.96415 3.12781C8.96413 3.1278 8.9641 3.12779 8.96408 3.12778C8.96406 3.12778 8.96404 3.12777 8.96402 3.12777C8.964 3.12776 8.96398 3.12775 8.96396 3.12775C8.96394 3.12774 8.96392 3.12773 8.9639 3.12773C8.96388 3.12772 8.96386 3.12772 8.96384 3.12771C8.96382 3.1277 8.9638 3.1277 8.96379 3.12769C8.96377 3.12769 8.96375 3.12768 8.96373 3.12768C8.96372 3.12767 8.9637 3.12767 8.96368 3.12766C8.96367 3.12766 8.96365 3.12765 8.96364 3.12765C8.96362 3.12764 8.96361 3.12764 8.96359 3.12763C8.96358 3.12763 8.96356 3.12762 8.96355 3.12762C8.96353 3.12762 8.96352 3.12761 8.96351 3.12761C8.96349 3.1276 8.96348 3.1276 8.96347 3.1276C8.96346 3.12759 8.96344 3.12759 8.96343 3.12758C8.96342 3.12758 8.96341 3.12758 8.9634 3.12757C8.96339 3.12757 8.96338 3.12757 8.96337 3.12756C8.96336 3.12756 8.96335 3.12756 8.96334 3.12756C8.96333 3.12755 8.96332 3.12755 8.96331 3.12755C8.9633 3.12755 8.9633 3.12754 8.96329 3.12754C8.96328 3.12754 8.96327 3.12754 8.96327 3.12753C8.96326 3.12753 8.96325 3.12753 8.96325 3.12753C8.96324 3.12753 8.96323 3.12752 8.96323 3.12752C8.96322 3.12752 8.96322 3.12752 8.96321 3.12752C8.96321 3.12752 8.9632 3.12751 8.9632 3.12751C8.9632 3.12751 8.96319 3.12751 8.96319 3.12751C8.96319 3.12751 8.96318 3.12751 8.96318 3.12751C8.96318 3.12751 8.96318 3.12751 8.96318 3.12751C8.96317 3.12751 8.96317 3.12751 8.96317 3.1275C8.96317 3.1275 8.96317 3.1275 8.375 5.03906C7.78683 6.95062 7.78683 6.95062 7.78683 6.95062C7.78683 6.95062 7.78683 6.95062 7.78683 6.95062C7.78683 6.95062 7.78684 6.95062 7.78684 6.95062C7.78684 6.95062 7.78684 6.95063 7.78685 6.95063C7.78685 6.95063 7.78685 6.95063 7.78686 6.95063C7.78686 6.95063 7.78687 6.95063 7.78687 6.95063C7.78687 6.95063 7.78688 6.95064 7.78689 6.95064C7.78689 6.95064 7.7869 6.95064 7.7869 6.95064C7.78691 6.95065 7.78692 6.95065 7.78692 6.95065C7.78693 6.95065 7.78694 6.95065 7.78694 6.95066C7.78695 6.95066 7.78696 6.95066 7.78697 6.95066C7.78698 6.95067 7.78699 6.95067 7.787 6.95067C7.787 6.95067 7.78701 6.95068 7.78702 6.95068C7.78703 6.95068 7.78705 6.95069 7.78706 6.95069C7.78707 6.95069 7.78708 6.9507 7.78709 6.9507C7.7871 6.9507 7.78711 6.95071 7.78713 6.95071C7.78714 6.95072 7.78715 6.95072 7.78716 6.95072C7.78718 6.95073 7.78719 6.95073 7.7872 6.95074C7.78722 6.95074 7.78723 6.95075 7.78725 6.95075C7.78726 6.95075 7.78728 6.95076 7.78729 6.95076C7.78731 6.95077 7.78732 6.95077 7.78734 6.95078C7.78736 6.95078 7.78737 6.95079 7.78739 6.95079C7.78741 6.9508 7.78743 6.9508 7.78744 6.95081C7.78746 6.95082 7.78748 6.95082 7.7875 6.95083C7.78752 6.95083 7.78754 6.95084 7.78755 6.95084C7.78757 6.95085 7.78759 6.95086 7.78761 6.95086C7.78763 6.95087 7.78765 6.95087 7.78768 6.95088C7.7877 6.95089 7.78772 6.95089 7.78774 6.9509C7.78776 6.95091 7.78778 6.95091 7.78781 6.95092C7.78783 6.95093 7.78785 6.95094 7.78787 6.95094C7.7879 6.95095 7.78792 6.95096 7.78795 6.95096C7.78797 6.95097 7.78799 6.95098 7.78802 6.95099C7.78804 6.95099 7.78807 6.951 7.78809 6.95101C7.78812 6.95102 7.78815 6.95103 7.78817 6.95103C7.7882 6.95104 7.78822 6.95105 7.78825 6.95106C7.78828 6.95107 7.78831 6.95108 7.78833 6.95108C7.78836 6.95109 7.78839 6.9511 7.78842 6.95111C7.78845 6.95112 7.78848 6.95113 7.78851 6.95114C7.78854 6.95115 7.78857 6.95116 7.7886 6.95116C7.78863 6.95117 7.78866 6.95118 7.78869 6.95119C7.78872 6.9512 7.78875 6.95121 7.78878 6.95122C7.78881 6.95123 7.78885 6.95124 7.78888 6.95125C7.78891 6.95126 7.78894 6.95127 7.78898 6.95128C7.78901 6.95129 7.78904 6.9513 7.78908 6.95131C7.78911 6.95132 7.78915 6.95133 7.78918 6.95134C7.78922 6.95136 7.78925 6.95137 7.78929 6.95138C7.78932 6.95139 7.78936 6.9514 7.7894 6.95141C7.78943 6.95142 7.78947 6.95143 7.78951 6.95144C7.78954 6.95146 7.78958 6.95147 7.78962 6.95148C7.78966 6.95149 7.7897 6.9515 7.78973 6.95151C7.78977 6.95153 7.78981 6.95154 7.78985 6.95155C7.78989 6.95156 7.78993 6.95158 7.78997 6.95159C7.79001 6.9516 7.79005 6.95161 7.79009 6.95163C7.79013 6.95164 7.79018 6.95165 7.79022 6.95166C7.79026 6.95168 7.7903 6.95169 7.79034 6.9517C7.79039 6.95172 7.79043 6.95173 7.79047 6.95174C7.79052 6.95176 7.79056 6.95177 7.7906 6.95178C7.79065 6.9518 7.79069 6.95181 7.79074 6.95182C7.79078 6.95184 7.79083 6.95185 7.79087 6.95187C7.79092 6.95188 7.79097 6.95189 7.79101 6.95191C7.79106 6.95192 7.79111 6.95194 7.79115 6.95195C7.7912 6.95197 7.79125 6.95198 7.7913 6.952C7.79134 6.95201 7.79139 6.95202 7.79144 6.95204C7.79149 6.95205 7.79154 6.95207 7.79159 6.95209C7.79164 6.9521 7.79169 6.95212 7.79174 6.95213C7.79179 6.95215 7.79184 6.95216 7.79189 6.95218C7.79194 6.95219 7.79199 6.95221 7.79205 6.95223C7.7921 6.95224 7.79215 6.95226 7.7922 6.95227C7.79226 6.95229 7.79231 6.95231 7.79236 6.95232C7.79242 6.95234 7.79247 6.95236 7.79252 6.95237C7.79258 6.95239 7.79263 6.95241 7.79269 6.95242C7.79274 6.95244 7.7928 6.95246 7.79285 6.95247C7.79291 6.95249 7.79297 6.95251 7.79302 6.95253C7.79308 6.95254 7.79314 6.95256 7.79319 6.95258C7.79325 6.9526 7.79331 6.95261 7.79337 6.95263C7.79342 6.95265 7.79348 6.95267 7.79354 6.95269C7.7936 6.9527 7.79366 6.95272 7.79372 6.95274C7.79378 6.95276 7.79384 6.95278 7.7939 6.9528C7.79396 6.95281 7.79402 6.95283 7.79408 6.95285C7.79414 6.95287 7.7942 6.95289 7.79427 6.95291C7.79433 6.95293 7.79439 6.95295 7.79445 6.95297C7.79452 6.95299 7.79458 6.95301 7.79464 6.95303C7.79471 6.95304 7.79477 6.95306 7.79484 6.95308C7.7949 6.9531 7.79496 6.95312 7.79503 6.95314C7.79509 6.95316 7.79516 6.95318 7.79523 6.9532C7.79529 6.95322 7.79536 6.95325 7.79542 6.95327C7.79549 6.95329 7.79556 6.95331 7.79563 6.95333C7.79569 6.95335 7.79576 6.95337 7.79583 6.95339C7.7959 6.95341 7.79597 6.95343 7.79603 6.95345C7.7961 6.95347 7.79617 6.9535 7.79624 6.95352C7.79631 6.95354 7.79638 6.95356 7.79645 6.95358C7.79652 6.9536 7.79659 6.95363 7.79667 6.95365C7.79674 6.95367 7.79681 6.95369 7.79688 6.95371C7.79695 6.95374 7.79703 6.95376 7.7971 6.95378C7.79717 6.9538 7.79724 6.95383 7.79732 6.95385C7.79739 6.95387 7.79747 6.95389 7.79754 6.95392C7.79761 6.95394 7.79769 6.95396 7.79776 6.95399C7.79784 6.95401 7.79792 6.95403 7.79799 6.95406C7.79807 6.95408 7.79814 6.9541 7.79822 6.95413C7.7983 6.95415 7.79837 6.95417 7.79845 6.9542C7.79853 6.95422 7.79861 6.95424 7.79868 6.95427C7.79876 6.95429 7.79884 6.95432 7.79892 6.95434C7.799 6.95437 7.79908 6.95439 7.79916 6.95441C7.79924 6.95444 7.79932 6.95446 7.7994 6.95449C7.79948 6.95451 7.79956 6.95454 7.79964 6.95456C7.79972 6.95459 7.79981 6.95461 7.79989 6.95464C7.79997 6.95466 7.80005 6.95469 7.80014 6.95471C7.80022 6.95474 7.8003 6.95477 7.80039 6.95479C7.80047 6.95482 7.80055 6.95484 7.80064 6.95487C7.80072 6.9549 7.80081 6.95492 7.80089 6.95495C7.80098 6.95497 7.80106 6.955 7.80115 6.95503C7.80123 6.95505 7.80132 6.95508 7.80141 6.95511C7.80149 6.95513 7.80158 6.95516 7.80167 6.95519C7.80176 6.95521 7.80185 6.95524 7.80193 6.95527C7.80202 6.9553 7.80211 6.95532 7.8022 6.95535C7.80229 6.95538 7.80238 6.95541 7.80247 6.95543C7.80256 6.95546 7.80265 6.95549 7.80274 6.95552C7.80283 6.95554 7.80292 6.95557 7.80301 6.9556C7.8031 6.95563 7.8032 6.95566 7.80329 6.95568C7.80338 6.95571 7.80347 6.95574 7.80357 6.95577C7.80366 6.9558 7.80375 6.95583 7.80385 6.95586C7.80394 6.95589 7.80403 6.95591 7.80413 6.95594C7.80422 6.95597 7.80432 6.956 7.80441 6.95603C7.80451 6.95606 7.8046 6.95609 7.8047 6.95612C7.8048 6.95615 7.80489 6.95618 7.80499 6.95621C7.80509 6.95624 7.80518 6.95627 7.80528 6.9563C7.80538 6.95633 7.80548 6.95636 7.80557 6.95639C7.80567 6.95642 7.80577 6.95645 7.80587 6.95648C7.80597 6.95651 7.80607 6.95654 7.80617 6.95657C7.80627 6.9566 7.80637 6.95663 7.80647 6.95666C7.80657 6.9567 7.80667 6.95673 7.80677 6.95676C7.80688 6.95679 7.80698 6.95682 7.80708 6.95685C7.80718 6.95688 7.80729 6.95691 7.80739 6.95695C7.80749 6.95698 7.80759 6.95701 7.8077 6.95704C7.8078 6.95707 7.80791 6.95711 7.80801 6.95714C7.80812 6.95717 7.80822 6.9572 7.80833 6.95724C7.80843 6.95727 7.80854 6.9573 7.80864 6.95733C7.80875 6.95737 7.80886 6.9574 7.80896 6.95743C7.80907 6.95746 7.80918 6.9575 7.80928 6.95753C7.80939 6.95756 7.8095 6.9576 7.80961 6.95763C7.80972 6.95766 7.80983 6.9577 7.80994 6.95773C7.81005 6.95776 7.81015 6.9578 7.81026 6.95783C7.81037 6.95787 7.81049 6.9579 7.8106 6.95793C7.81071 6.95797 7.81082 6.958 7.81093 6.95804C7.81104 6.95807 7.81115 6.95811 7.81127 6.95814C7.81138 6.95817 7.81149 6.95821 7.8116 6.95824C7.81172 6.95828 7.81183 6.95831 7.81194 6.95835C7.81206 6.95838 7.81217 6.95842 7.81229 6.95845C7.8124 6.95849 7.81252 6.95852 7.81263 6.95856C7.81275 6.9586 7.81286 6.95863 7.81298 6.95867C7.8131 6.9587 7.81321 6.95874 7.81333 6.95877C7.81345 6.95881 7.81356 6.95885 7.81368 6.95888C7.8138 6.95892 7.81392 6.95896 7.81404 6.95899C7.81415 6.95903 7.81427 6.95907 7.81439 6.9591C7.81451 6.95914 7.81463 6.95918 7.81475 6.95921C7.81487 6.95925 7.81499 6.95929 7.81511 6.95932C7.81523 6.95936 7.81536 6.9594 7.81548 6.95944C7.8156 6.95947 7.81572 6.95951 7.81584 6.95955C7.81597 6.95959 7.81609 6.95962 7.81621 6.95966C7.81634 6.9597 7.81646 6.95974 7.81658 6.95978C7.81671 6.95981 7.81683 6.95985 7.81696 6.95989C7.81708 6.95993 7.81721 6.95997 7.81733 6.96001C7.81746 6.96004 7.81758 6.96008 7.81771 6.96012C7.81784 6.96016 7.81796 6.9602 7.81809 6.96024C7.81822 6.96028 7.81834 6.96032 7.81847 6.96036C7.8186 6.9604 7.81873 6.96044 7.81886 6.96048C7.81899 6.96051 7.81911 6.96055 7.81924 6.96059C7.81937 6.96063 7.8195 6.96067 7.81963 6.96071C7.81976 6.96075 7.81989 6.96079 7.82002 6.96083C7.82016 6.96088 7.82029 6.96092 7.82042 6.96096C7.82055 6.961 7.82068 6.96104 7.82081 6.96108C7.82095 6.96112 7.82108 6.96116 7.82121 6.9612C7.82135 6.96124 7.82148 6.96128 7.82161 6.96132C7.82175 6.96137 7.82188 6.96141 7.82202 6.96145C7.82215 6.96149 7.82229 6.96153 7.82242 6.96157C7.82256 6.96161 7.8227 6.96166 7.82283 6.9617C7.82297 6.96174 7.8231 6.96178 7.82324 6.96182C7.82338 6.96187 7.82352 6.96191 7.82365 6.96195C7.82379 6.96199 7.82393 6.96204 7.82407 6.96208C7.82421 6.96212 7.82435 6.96216 7.82449 6.96221C7.82463 6.96225 7.82477 6.96229 7.82491 6.96234C7.82505 6.96238 7.82519 6.96242 7.82533 6.96247C7.82547 6.96251 7.82561 6.96255 7.82575 6.9626C7.82589 6.96264 7.82604 6.96268 7.82618 6.96273C7.82632 6.96277 7.82646 6.96282 7.82661 6.96286C7.82675 6.9629 7.82689 6.96295 7.82704 6.96299C7.82718 6.96304 7.82733 6.96308 7.82747 6.96313C7.82762 6.96317 7.82776 6.96322 7.82791 6.96326C7.82805 6.96331 7.8282 6.96335 7.82835 6.9634C7.82849 6.96344 7.82864 6.96349 7.82879 6.96353C7.82893 6.96358 7.82908 6.96362 7.82923 6.96367C7.82938 6.96371 7.82953 6.96376 7.82967 6.9638C7.82982 6.96385 7.82997 6.9639 7.83012 6.96394C7.83027 6.96399 7.83042 6.96403 7.83057 6.96408C7.83072 6.96413 7.83087 6.96417 7.83102 6.96422C7.83118 6.96427 7.83133 6.96431 7.83148 6.96436C7.83163 6.96441 7.83178 6.96445 7.83194 6.9645C7.83209 6.96455 7.83224 6.96459 7.83239 6.96464C7.83255 6.96469 7.8327 6.96474 7.83286 6.96478C7.83301 6.96483 7.83316 6.96488 7.83332 6.96493C7.83347 6.96497 7.83363 6.96502 7.83379 6.96507C7.83394 6.96512 7.8341 6.96517 7.83425 6.96521C7.83441 6.96526 7.83457 6.96531 7.83473 6.96536C7.83488 6.96541 7.83504 6.96545 7.8352 6.9655C7.83536 6.96555 7.83551 6.9656 7.83567 6.96565C7.83583 6.9657 7.83599 6.96575 7.83615 6.9658C7.83631 6.96585 7.83647 6.9659 7.83663 6.96594C7.83679 6.96599 7.83695 6.96604 7.83711 6.96609C7.83727 6.96614 7.83744 6.96619 7.8376 6.96624C7.83776 6.96629 7.83792 6.96634 7.83809 6.96639C7.83825 6.96644 7.83841 6.96649 7.83857 6.96654C7.83874 6.96659 7.8389 6.96664 7.83907 6.96669C7.83923 6.96674 7.8394 6.96679 7.83956 6.96685C7.83973 6.9669 7.83989 6.96695 7.84006 6.967C7.84022 6.96705 7.84039 6.9671 7.84056 6.96715C7.84072 6.9672 7.84089 6.96725 7.84106 6.96731C7.84122 6.96736 7.84139 6.96741 7.84156 6.96746C7.84173 6.96751 7.8419 6.96756 7.84206 6.96762C7.84223 6.96767 7.8424 6.96772 7.84257 6.96777C7.84274 6.96782 7.84291 6.96788 7.84308 6.96793C7.84325 6.96798 7.84342 6.96803 7.8436 6.96809C7.84377 6.96814 7.84394 6.96819 7.84411 6.96825C7.84428 6.9683 7.84446 6.96835 7.84463 6.9684C7.8448 6.96846 7.84497 6.96851 7.84515 6.96856C7.84532 6.96862 7.84549 6.96867 7.84567 6.96873C7.84584 6.96878 7.84602 6.96883 7.84619 6.96889C7.84637 6.96894 7.84654 6.96899 7.84672 6.96905C7.8469 6.9691 7.84707 6.96916 7.84725 6.96921C7.84743 6.96927 7.8476 6.96932 7.84778 6.96937C7.84796 6.96943 7.84814 6.96948 7.84831 6.96954C7.84849 6.96959 7.84867 6.96965 7.84885 6.9697C7.84903 6.96976 7.84921 6.96981 7.84939 6.96987C7.84957 6.96992 7.84975 6.96998 7.84993 6.97004C7.85011 6.97009 7.85029 6.97015 7.85047 6.9702C7.85065 6.97026 7.85083 6.97031 7.85102 6.97037C7.8512 6.97043 7.85138 6.97048 7.85156 6.97054C7.85175 6.9706 7.85193 6.97065 7.85211 6.97071C7.8523 6.97076 7.85248 6.97082 7.85267 6.97088C7.85285 6.97093 7.85303 6.97099 7.85322 6.97105C7.8534 6.97111 7.85359 6.97116 7.85378 6.97122C7.85396 6.97128 7.85415 6.97133 7.85434 6.97139C7.85452 6.97145 7.85471 6.97151 7.8549 6.97156C7.85508 6.97162 7.85527 6.97168 7.85546 6.97174C7.85565 6.9718 7.85584 6.97185 7.85603 6.97191C7.85622 6.97197 7.8564 6.97203 7.85659 6.97209C7.85678 6.97215 7.85697 6.9722 7.85717 6.97226C7.85736 6.97232 7.85755 6.97238 7.85774 6.97244C7.85793 6.9725 7.85812 6.97256 7.85831 6.97262C7.85851 6.97268 7.8587 6.97273 7.85889 6.97279C7.85908 6.97285 7.85928 6.97291 7.85947 6.97297C7.85967 6.97303 7.85986 6.97309 7.86005 6.97315C7.86025 6.97321 7.86044 6.97327 7.86064 6.97333C7.86083 6.97339 7.86103 6.97345 7.86123 6.97351C7.86142 6.97357 7.86162 6.97363 7.86181 6.97369C7.86201 6.97375 7.86221 6.97381 7.86241 6.97388C7.8626 6.97394 7.8628 6.974 7.863 6.97406C7.8632 6.97412 7.8634 6.97418 7.8636 6.97424C7.8638 6.9743 7.864 6.97436 7.8642 6.97443C7.86439 6.97449 7.8646 6.97455 7.8648 6.97461C7.865 6.97467 7.8652 6.97473 7.8654 6.9748C7.8656 6.97486 7.8658 6.97492 7.866 6.97498C7.86621 6.97504 7.86641 6.97511 7.86661 6.97517C7.86682 6.97523 7.86702 6.97529 7.86722 6.97536C7.86743 6.97542 7.86763 6.97548 7.86784 6.97555C7.86804 6.97561 7.86824 6.97567 7.86845 6.97573C7.86866 6.9758 7.86886 6.97586 7.86907 6.97592C7.86927 6.97599 7.86948 6.97605 7.86969 6.97612C7.86989 6.97618 7.8701 6.97624 7.87031 6.97631C7.87052 6.97637 7.87072 6.97643 7.87093 6.9765C7.87114 6.97656 7.87135 6.97663 7.87156 6.97669C7.87177 6.97676 7.87198 6.97682 7.87219 6.97689C7.8724 6.97695 7.87261 6.97701 7.87282 6.97708C7.87303 6.97714 7.87324 6.97721 7.87345 6.97727C7.87366 6.97734 7.87388 6.9774 7.87409 6.97747C7.8743 6.97754 7.87451 6.9776 7.87473 6.97767C7.87494 6.97773 7.87515 6.9778 7.87537 6.97786C7.87558 6.97793 7.8758 6.97799 7.87601 6.97806C7.87622 6.97813 7.87644 6.97819 7.87665 6.97826C7.87687 6.97833 7.87709 6.97839 7.8773 6.97846C7.87752 6.97853 7.87773 6.97859 7.87795 6.97866C7.87817 6.97873 7.87839 6.97879 7.8786 6.97886C7.87882 6.97893 7.87904 6.97899 7.87926 6.97906C7.87948 6.97913 7.8797 6.9792 7.87991 6.97926C7.88013 6.97933 7.88035 6.9794 7.88057 6.97947C7.88079 6.97953 7.88101 6.9796 7.88124 6.97967C7.88146 6.97974 7.88168 6.9798 7.8819 6.97987C7.88212 6.97994 7.88234 6.98001 7.88257 6.98008C7.88279 6.98015 7.88301 6.98021 7.88323 6.98028C7.88346 6.98035 7.88368 6.98042 7.8839 6.98049C7.88413 6.98056 7.88435 6.98063 7.88458 6.9807C7.8848 6.98077 7.88503 6.98084 7.88525 6.9809C7.88548 6.98097 7.8857 6.98104 7.88593 6.98111C7.88616 6.98118 7.88638 6.98125 7.88661 6.98132C7.88684 6.98139 7.88706 6.98146 7.88729 6.98153C7.88752 6.9816 7.88775 6.98167 7.88798 6.98174C7.88821 6.98181 7.88843 6.98188 7.88866 6.98195C7.88889 6.98203 7.88912 6.9821 7.88935 6.98217C7.88958 6.98224 7.88981 6.98231 7.89004 6.98238C7.89028 6.98245 7.89051 6.98252 7.89074 6.98259C7.89097 6.98266 7.8912 6.98274 7.89143 6.98281C7.89167 6.98288 7.8919 6.98295 7.89213 6.98302C7.89237 6.98309 7.8926 6.98317 7.89283 6.98324C7.89307 6.98331 7.8933 6.98338 7.89354 6.98345C7.89377 6.98353 7.89401 6.9836 7.89424 6.98367C7.89448 6.98374 7.89471 6.98382 7.89495 6.98389C7.89519 6.98396 7.89542 6.98403 7.89566 6.98411C7.8959 6.98418 7.89614 6.98425 7.89637 6.98433C7.89661 6.9844 7.89685 6.98447 7.89709 6.98455C7.89733 6.98462 7.89757 6.98469 7.8978 6.98477C7.89804 6.98484 7.89828 6.98491 7.89852 6.98499C7.89876 6.98506 7.89901 6.98514 7.89925 6.98521C7.89949 6.98528 7.89973 6.98536 7.89997 6.98543C7.90021 6.98551 7.90045 6.98558 7.9007 6.98566C7.90094 6.98573 7.90118 6.98581 7.90143 6.98588C7.90167 6.98596 7.90191 6.98603 7.90216 6.98611C7.9024 6.98618 7.90265 6.98626 7.90289 6.98633C7.90313 6.98641 7.90338 6.98648 7.90363 6.98656C7.90387 6.98663 7.90412 6.98671 7.90436 6.98679C7.90461 6.98686 7.90486 6.98694 7.9051 6.98701C7.90535 6.98709 7.9056 6.98717 7.90585 6.98724C7.90609 6.98732 7.90634 6.98739 7.90659 6.98747C7.90684 6.98755 7.90709 6.98762 7.90734 6.9877C7.90759 6.98778 7.90784 6.98785 7.90809 6.98793C7.90834 6.98801 7.90859 6.98809 7.90884 6.98816C7.90909 6.98824 7.90934 6.98832 7.9096 6.98839C7.90985 6.98847 7.9101 6.98855 7.91035 6.98863C7.9106 6.98871 7.91086 6.98878 7.91111 6.98886C7.91136 6.98894 7.91162 6.98902 7.91187 6.9891C7.91213 6.98917 7.91238 6.98925 7.91264 6.98933C7.91289 6.98941 7.91315 6.98949 7.9134 6.98957C7.91366 6.98964 7.91391 6.98972 7.91417 6.9898C7.91443 6.98988 7.91468 6.98996 7.91494 6.99004C7.9152 6.99012 7.91546 6.9902 7.91571 6.99028C7.91597 6.99036 7.91623 6.99044 7.91649 6.99052C7.91675 6.9906 7.91701 6.99068 7.91727 6.99076C7.91753 6.99084 7.91779 6.99092 7.91805 6.991C7.91831 6.99108 7.91857 6.99116 7.91883 6.99124C7.91909 6.99132 7.91935 6.9914 7.91961 6.99148C7.91987 6.99156 7.92014 6.99164 7.9204 6.99172C7.92066 6.9918 7.92093 6.99188 7.92119 6.99196C7.92145 6.99204 7.92172 6.99212 7.92198 6.99221C7.92224 6.99229 7.92251 6.99237 7.92277 6.99245C7.92304 6.99253 7.9233 6.99261 7.92357 6.9927C7.92384 6.99278 7.9241 6.99286 7.92437 6.99294C7.92464 6.99302 7.9249 6.9931 7.92517 6.99319C7.92544 6.99327 7.9257 6.99335 7.92597 6.99343C7.92624 6.99352 7.92651 6.9936 7.92678 6.99368C7.92705 6.99376 7.92732 6.99385 7.92759 6.99393C7.92786 6.99401 7.92813 6.9941 7.9284 6.99418C7.92867 6.99426 7.92894 6.99435 7.92921 6.99443C7.92948 6.99451 7.92975 6.9946 7.93002 6.99468C7.9303 6.99476 7.93057 6.99485 7.93084 6.99493C7.93111 6.99502 7.93139 6.9951 7.93166 6.99518C7.93193 6.99527 7.93221 6.99535 7.93248 6.99544C7.93276 6.99552 7.93303 6.99561 7.93331 6.99569C7.93358 6.99578 7.93386 6.99586 7.93413 6.99594C7.93441 6.99603 7.93468 6.99611 7.93496 6.9962C7.93524 6.99628 7.93551 6.99637 7.93579 6.99646C7.93607 6.99654 7.93635 6.99663 7.93663 6.99671C7.9369 6.9968 7.93718 6.99688 7.93746 6.99697C7.93774 6.99705 7.93802 6.99714 7.9383 6.99723C7.93858 6.99731 7.93886 6.9974 7.93914 6.99749C7.93942 6.99757 7.9397 6.99766 7.93998 6.99774C7.94026 6.99783 7.94055 6.99792 7.94083 6.998C7.94111 6.99809 7.94139 6.99818 7.94167 6.99827C7.94196 6.99835 7.94224 6.99844 7.94252 6.99853C7.94281 6.99861 7.94309 6.9987 7.94338 6.99879C7.94366 6.99888 7.94395 6.99896 7.94423 6.99905C7.94452 6.99914 7.9448 6.99923 7.94509 6.99932C7.94537 6.9994 7.94566 6.99949 7.94595 6.99958C7.94623 6.99967 7.94652 6.99976 7.94681 6.99984C7.94709 6.99993 7.94738 7.00002 7.94767 7.00011C7.94796 7.0002 7.94825 7.00029 7.94854 7.00038C7.94883 7.00047 7.94912 7.00055 7.9494 7.00064C7.94969 7.00073 7.94998 7.00082 7.95028 7.00091C7.95057 7.001 7.95086 7.00109 7.95115 7.00118C7.95144 7.00127 7.95173 7.00136 7.95202 7.00145C7.95232 7.00154 7.95261 7.00163 7.9529 7.00172C7.95319 7.00181 7.95349 7.0019 7.95378 7.00199C7.95407 7.00208 7.95437 7.00217 7.95466 7.00226C7.95496 7.00235 7.95525 7.00244 7.95555 7.00253C7.95584 7.00262 7.95614 7.00272 7.95643 7.00281C7.95673 7.0029 7.95703 7.00299 7.95732 7.00308C7.95762 7.00317 7.95792 7.00326 7.95822 7.00335C7.95851 7.00345 7.95881 7.00354 7.95911 7.00363C7.95941 7.00372 7.95971 7.00381 7.96 7.00391C7.9603 7.004 7.9606 7.00409 7.9609 7.00418C7.9612 7.00427 7.9615 7.00437 7.9618 7.00446C7.9621 7.00455 7.96241 7.00464 7.96271 7.00474C7.96301 7.00483 7.96331 7.00492 7.96361 7.00502C7.96391 7.00511 7.96422 7.0052 7.96452 7.0053C7.96482 7.00539 7.96513 7.00548 7.96543 7.00558C7.96573 7.00567 7.96604 7.00576 7.96634 7.00586C7.96665 7.00595 7.96695 7.00604 7.96726 7.00614C7.96756 7.00623 7.96787 7.00633 7.96817 7.00642C7.96848 7.00651 7.96879 7.00661 7.96909 7.0067C7.9694 7.0068 7.96971 7.00689 7.97002 7.00699C7.97032 7.00708 7.97063 7.00718 7.97094 7.00727C7.97125 7.00737 7.97156 7.00746 7.97187 7.00756C7.97218 7.00765 7.97248 7.00775 7.97279 7.00784C7.9731 7.00794 7.97342 7.00803 7.97373 7.00813C7.97404 7.00822 7.97435 7.00832 7.97466 7.00841C7.97497 7.00851 7.97528 7.00861 7.97559 7.0087C7.97591 7.0088 7.97622 7.00889 7.97653 7.00899C7.97685 7.00909 7.97716 7.00918 7.97747 7.00928C7.97779 7.00938 7.9781 7.00947 7.97842 7.00957C7.97873 7.00967 7.97905 7.00976 7.97936 7.00986C7.97968 7.00996 7.97999 7.01006 7.98031 7.01015C7.98062 7.01025 7.98094 7.01035 7.98126 7.01044C7.98157 7.01054 7.98189 7.01064 7.98221 7.01074C7.98253 7.01084 7.98285 7.01093 7.98316 7.01103C7.98348 7.01113 7.9838 7.01123 7.98412 7.01133C7.98444 7.01142 7.98476 7.01152 7.98508 7.01162C7.9854 7.01172 7.98572 7.01182 7.98604 7.01192C7.98636 7.01202 7.98668 7.01211 7.987 7.01221C7.98733 7.01231 7.98765 7.01241 7.98797 7.01251C7.98829 7.01261 7.98861 7.01271 7.98894 7.01281C7.98926 7.01291 7.98958 7.01301 7.98991 7.01311C7.99023 7.01321 7.99056 7.01331 7.99088 7.01341C7.99121 7.01351 7.99153 7.01361 7.99186 7.01371C7.99218 7.01381 7.99251 7.01391 7.99283 7.01401C7.99316 7.01411 7.99349 7.01421 7.99381 7.01431C7.99414 7.01441 7.99447 7.01451 7.9948 7.01461C7.99512 7.01471 7.99545 7.01481 7.99578 7.01491C7.99611 7.01501 7.99644 7.01512 7.99677 7.01522C7.9971 7.01532 7.99743 7.01542 7.99776 7.01552C7.99809 7.01562 7.99842 7.01572 7.99875 7.01583C7.99908 7.01593 7.99941 7.01603 7.99974 7.01613C8.00007 7.01623 8.00041 7.01634 8.00074 7.01644C8.00107 7.01654 8.0014 7.01664 8.00174 7.01675C8.00207 7.01685 8.0024 7.01695 8.00274 7.01705C8.00307 7.01716 8.0034 7.01726 8.00374 7.01736C8.00407 7.01747 8.00441 7.01757 8.00474 7.01767C8.00508 7.01778 8.00542 7.01788 8.00575 7.01798C8.00609 7.01809 8.00643 7.01819 8.00676 7.01829C8.0071 7.0184 8.00744 7.0185 8.00778 7.0186C8.00811 7.01871 8.00845 7.01881 8.00879 7.01892C8.00913 7.01902 8.00947 7.01912 8.00981 7.01923C8.01015 7.01933 8.01049 7.01944 8.01083 7.01954C8.01117 7.01965 8.01151 7.01975 8.01185 7.01986C8.01219 7.01996 8.01253 7.02007 8.01287 7.02017C8.01321 7.02028 8.01356 7.02038 8.0139 7.02049C8.01424 7.02059 8.01458 7.0207 8.01493 7.0208C8.01527 7.02091 8.01561 7.02102 8.01596 7.02112C8.0163 7.02123 8.01665 7.02133 8.01699 7.02144C8.01734 7.02155 8.01768 7.02165 8.01803 7.02176C8.01837 7.02186 8.01872 7.02197 8.01906 7.02208C8.01941 7.02218 8.01976 7.02229 8.0201 7.0224C8.02045 7.0225 8.0208 7.02261 8.02115 7.02272C8.0215 7.02283 8.02184 7.02293 8.02219 7.02304C8.02254 7.02315 8.02289 7.02325 8.02324 7.02336C8.02359 7.02347 8.02394 7.02358 8.02429 7.02369C8.02464 7.02379 8.02499 7.0239 8.02534 7.02401C8.02569 7.02412 8.02604 7.02423 8.02639 7.02433C8.02675 7.02444 8.0271 7.02455 8.02745 7.02466C8.0278 7.02477 8.02816 7.02488 8.02851 7.02498C8.02886 7.02509 8.02922 7.0252 8.02957 7.02531C8.02993 7.02542 8.03028 7.02553 8.03064 7.02564C8.03099 7.02575 8.03135 7.02586 8.0317 7.02597C8.03206 7.02608 8.03241 7.02618 8.03277 7.02629C8.03313 7.0264 8.03348 7.02651 8.03384 7.02662C8.0342 7.02673 8.03455 7.02684 8.03491 7.02695C8.03527 7.02706 8.03563 7.02717 8.03599 7.02728C8.03635 7.0274 8.03671 7.02751 8.03706 7.02762C8.03742 7.02773 8.03778 7.02784 8.03814 7.02795C8.0385 7.02806 8.03887 7.02817 8.03923 7.02828C8.03959 7.02839 8.03995 7.0285 8.04031 7.02862C8.04067 7.02873 8.04104 7.02884 8.0414 7.02895C8.04176 7.02906 8.04212 7.02917 8.04249 7.02928C8.04285 7.0294 8.04321 7.02951 8.04358 7.02962C8.04394 7.02973 8.04431 7.02984 8.04467 7.02996C8.04504 7.03007 8.0454 7.03018 8.04577 7.03029C8.04613 7.03041 8.0465 7.03052 8.04687 7.03063C8.04723 7.03075 8.0476 7.03086 8.04797 7.03097C8.04833 7.03108 8.0487 7.0312 8.04907 7.03131C8.04944 7.03142 8.04981 7.03154 8.05018 7.03165C8.05054 7.03176 8.05091 7.03188 8.05128 7.03199C8.05165 7.0321 8.05202 7.03222 8.05239 7.03233C8.05276 7.03245 8.05313 7.03256 8.05351 7.03268C8.05388 7.03279 8.05425 7.0329 8.05462 7.03302C8.05499 7.03313 8.05536 7.03325 8.05574 7.03336C8.05611 7.03348 8.05648 7.03359 8.05686 7.03371C8.05723 7.03382 8.0576 7.03394 8.05798 7.03405C8.05835 7.03417 8.05873 7.03428 8.0591 7.0344C8.05948 7.03451 8.05985 7.03463 8.06023 7.03474C8.0606 7.03486 8.06098 7.03497 8.06136 7.03509C8.06173 7.03521 8.06211 7.03532 8.06249 7.03544C8.06286 7.03555 8.06324 7.03567 8.06362 7.03579C8.064 7.0359 8.06438 7.03602 8.06476 7.03614C8.06514 7.03625 8.06551 7.03637 8.06589 7.03649C8.06627 7.0366 8.06665 7.03672 8.06703 7.03684C8.06741 7.03695 8.0678 7.03707 8.06818 7.03719C8.06856 7.03731 8.06894 7.03742 8.06932 7.03754C8.0697 7.03766 8.07009 7.03778 8.07047 7.03789C8.07085 7.03801 8.07123 7.03813 8.07162 7.03825C8.072 7.03837 8.07239 7.03848 8.07277 7.0386C8.07315 7.03872 8.07354 7.03884 8.07392 7.03896C8.07431 7.03908 8.0747 7.03919 8.07508 7.03931C8.07547 7.03943 8.07585 7.03955 8.07624 7.03967C8.07663 7.03979 8.07701 7.03991 8.0774 7.04003C8.07779 7.04015 8.07818 7.04027 8.07856 7.04039C8.07895 7.0405 8.07934 7.04062 8.07973 7.04074C8.08012 7.04086 8.08051 7.04098 8.0809 7.0411C8.08129 7.04122 8.08168 7.04134 8.08207 7.04146C8.08246 7.04158 8.08285 7.0417 8.08324 7.04182C8.08363 7.04194 8.08402 7.04207 8.08442 7.04219C8.08481 7.04231 8.0852 7.04243 8.08559 7.04255C8.08599 7.04267 8.08638 7.04279 8.08677 7.04291C8.08717 7.04303 8.08756 7.04315 8.08796 7.04328C8.08835 7.0434 8.08874 7.04352 8.08914 7.04364C8.08954 7.04376 8.08993 7.04388 8.09033 7.044C8.09072 7.04413 8.09112 7.04425 8.09152 7.04437L9.26786 3.22125Z" fill="#64FFDA" mask="url(#path-2-inside-1_1429_4094)"/>
</g>
</g>
</g>
<defs>
<filter id="filter0_d_1429_4094" x="1.45703" y="3.73828" width="13.1094" height="16.3203" filterUnits="userSpaceOnUse" color-interpolation-filters="sRGB">
<feFlood flood-opacity="0" result="BackgroundImageFix"/>
<feColorMatrix in="SourceAlpha" type="matrix" values="0 0 0 0 0 0 0 0 0 0 0 0 0 0 0 0 0 0 127 0" result="hardAlpha"/>
<feOffset dy="4"/>
<feGaussianBlur stdDeviation="2"/>
<feComposite in2="hardAlpha" operator="out"/>
<feColorMatrix type="matrix" values="0 0 0 0 0 0 0 0 0 0 0 0 0 0 0 0 0 0 0.25 0"/>
<feBlend mode="normal" in2="BackgroundImageFix" result="effect1_dropShadow_1429_4094"/>
<feBlend mode="normal" in="SourceGraphic" in2="effect1_dropShadow_1429_4094" result="shape"/>
</filter>
<clipPath id="clip0_1429_4094">
<rect width="16" height="16" rx="8" fill="white"/>
</clipPath>
</defs>
</svg>
